<svg width="345" height="363" viewBox="0 0 345 363" fill="none" xmlns="http://www.w3.org/2000/svg">
<path opacity="0.1" d="M216.178 95.8551C127.462 100.425 103.124 22.641 28.381 4.43021C-51.2171 -14.9724 -87.1431 33.3005 -95.6499 72.7694C-102.207 103.195 -115.99 116.401 -152.317 124.861C-178.209 129.611 -201.152 143.067 -195.142 179.975C-189.133 216.883 -201.314 238.92 -219.446 252.123C-237.578 265.328 -254.495 284.074 -260.445 308.495C-270.523 349.834 -250.036 393.134 -212.279 412.331C-169.849 433.446 -147.062 456.559 -150.042 504.497C-150.787 516.479 -145.787 580.222 -85.1237 560.954C-69.8022 556.089 -6.42053 523.271 32.0425 584.18C41.6194 599.346 65.3346 614.269 87.0049 619.557C145.119 633.719 204.533 590.878 210.433 531.889C216.833 488.243 224.773 467.776 271.956 483.021C318.642 498.105 346.58 433.125 320.458 399.789C284.203 362.219 327.464 294.65 341.202 238.27C359.981 161.205 293.616 87.4621 216.178 95.8551Z" fill="#22C55E"/>
</svg>
