<svg width="1440" height="988" viewBox="0 0 1440 988" fill="none" xmlns="http://www.w3.org/2000/svg">
<path d="M0 40.1005C0 40.1005 210.397 7.49202 346 10.1005C507.694 13.2108 594.037 71.9769 755.75 70.1005C918.075 68.2169 1003.19 -3.03469 1165.5 0.100492C1273.81 2.19268 1440 40.1005 1440 40.1005V956.1C1440 956.1 1304.22 977.268 1179.5 966.1C1098.03 958.806 994.714 927.501 913 931.1C829.626 934.773 739.519 977.588 656.5 986.1C492.289 1002.94 408.5 891.227 243.5 896.1C126.562 899.554 0 956.1 0 956.1V40.1005Z" fill="#1E293B"/>
</svg>
