<svg width="408" height="511" viewBox="0 0 408 511" fill="none" xmlns="http://www.w3.org/2000/svg">
<path d="M589.021 80.3669C611.03 45.4671 585.95 0 544.69 0H392.586C374.591 0 357.854 9.23228 348.255 24.4536L108.631 404.428C86.6223 439.328 111.702 484.795 152.962 484.795H305.067C323.062 484.795 339.799 475.563 349.398 460.341L589.021 80.3669Z" fill="#1E293B"/>
<path d="M401.773 205.872C420.058 177.272 399.517 139.761 365.572 139.761H261.168C246.51 139.761 232.863 147.234 224.967 159.584L42.5651 444.889C24.2804 473.489 44.8206 511 78.7661 511H183.17C197.828 511 211.475 503.527 219.371 491.177L401.773 205.872Z" fill="#22C55E"/>
</svg>
