<svg width="376" height="511" viewBox="0 0 376 511" fill="none" xmlns="http://www.w3.org/2000/svg">
<path d="M-213.318 80.3669C-235.327 45.4671 -210.247 0 -168.987 0H-16.8827C1.11258 0 17.8495 9.23228 27.4485 24.4536L267.072 404.428C289.081 439.328 264.001 484.795 222.741 484.795H70.6366C52.6413 484.795 35.9043 475.563 26.3053 460.341L-213.318 80.3669Z" fill="#1E293B"/>
<path d="M-26.0697 205.872C-44.3544 177.272 -23.8142 139.761 10.1313 139.761H114.535C129.193 139.761 142.84 147.234 150.736 159.584L333.138 444.889C351.423 473.489 330.883 511 296.937 511H192.533C177.875 511 164.228 503.527 156.332 491.177L-26.0697 205.872Z" fill="#22C55E"/>
</svg>
