<?xml version="1.0" encoding="UTF-8"?>
<svg xmlns="http://www.w3.org/2000/svg" xmlns:xlink="http://www.w3.org/1999/xlink" width="1457px" height="1000px" viewBox="0 0 1457 1000" version="1.1">
<g id="surface1">
<path style=" stroke:none;fill-rule:nonzero;fill:rgb(11.764706%,16.078432%,23.137255%);fill-opacity:1;" d="M 0 40.585938 C 0 40.585938 212.878906 7.582031 350.085938 10.222656 C 513.6875 13.371094 601.050781 72.851562 764.671875 70.953125 C 928.914062 69.046875 1015.035156 -3.070312 1179.257812 0.101562 C 1288.847656 2.21875 1457 40.585938 1457 40.585938 L 1457 967.710938 C 1457 967.710938 1319.617188 989.136719 1193.425781 977.835938 C 1110.992188 970.453125 1006.457031 938.765625 923.777344 942.410156 C 839.421875 946.125 748.25 989.460938 664.25 998.078125 C 498.101562 1015.121094 413.324219 902.050781 246.375 906.984375 C 128.054688 910.480469 0 967.710938 0 967.710938 Z M 0 40.585938 "/>
</g>
</svg>
