<?xml version="1.0" encoding="UTF-8"?>
<svg xmlns="http://www.w3.org/2000/svg" xmlns:xlink="http://www.w3.org/1999/xlink" width="1603px" height="1100px" viewBox="0 0 1602 1100" version="1.1">
<g id="surface1">
<path style=" stroke:none;fill-rule:nonzero;fill:rgb(11.764706%,16.078432%,23.137255%);fill-opacity:1;" d="M 0 44.644531 C 0 44.644531 234.066406 8.339844 384.925781 11.246094 C 564.808594 14.707031 660.867188 80.136719 840.773438 78.046875 C 1021.359375 75.953125 1116.050781 -3.378906 1296.617188 0.113281 C 1417.113281 2.441406 1602 44.644531 1602 44.644531 L 1602 1064.480469 C 1602 1064.480469 1450.945312 1088.050781 1312.195312 1075.621094 C 1221.558594 1067.5 1106.621094 1032.640625 1015.710938 1036.652344 C 922.960938 1040.738281 822.714844 1088.40625 730.355469 1097.886719 C 547.671875 1116.632812 454.457031 992.253906 270.894531 997.683594 C 140.796875 1001.527344 0 1064.480469 0 1064.480469 Z M 0 44.644531 "/>
</g>
</svg>
