<svg width="419" height="420" viewBox="0 0 419 420" fill="none" xmlns="http://www.w3.org/2000/svg">
<path d="M479.178 -107.145C390.462 -102.575 366.124 -180.359 291.381 -198.57C211.783 -217.972 175.857 -169.699 167.35 -130.231C160.793 -99.8054 147.01 -86.5987 110.683 -78.1389C84.791 -73.3887 61.8483 -59.9332 67.8576 -23.0252C73.8671 13.8827 61.6864 35.9202 43.5541 49.1228C25.4218 62.328 8.50497 81.0737 2.55512 105.495C-7.52251 146.834 12.964 190.134 50.7215 209.331C93.1506 230.446 115.938 253.559 112.958 301.497C112.213 313.479 117.213 377.222 177.876 357.954C193.198 353.089 256.579 320.271 295.042 381.18C304.619 396.346 328.335 411.269 350.005 416.557C408.119 430.719 467.533 387.878 473.433 328.889C479.833 285.243 487.773 264.776 534.956 280.021C581.642 295.105 609.58 230.125 583.458 196.789C547.203 159.219 590.464 91.6501 604.202 35.27C622.981 -41.7947 556.616 -115.538 479.178 -107.145Z" fill="#26365A" fill-opacity="0.4"/>
</svg>
