<svg width="312" height="623" viewBox="0 0 312 623" fill="none" xmlns="http://www.w3.org/2000/svg">
<path d="M183.178 95.8551C94.4619 100.425 70.1244 22.641 -4.61899 4.43021C-84.2171 -14.9724 -120.143 33.3005 -128.65 72.7694C-135.207 103.195 -148.99 116.401 -185.317 124.861C-211.209 129.611 -234.152 143.067 -228.142 179.975C-222.133 216.883 -234.314 238.92 -252.446 252.123C-270.578 265.328 -287.495 284.074 -293.445 308.495C-303.523 349.834 -283.036 393.134 -245.279 412.331C-202.849 433.446 -180.062 456.559 -183.042 504.497C-183.787 516.479 -178.787 580.222 -118.124 560.954C-102.802 556.089 -39.4205 523.271 -0.95752 584.18C8.61935 599.346 32.3346 614.269 54.0049 619.557C112.119 633.719 171.533 590.878 177.433 531.889C183.833 488.243 191.773 467.776 238.956 483.021C285.642 498.105 313.58 433.125 287.458 399.789C251.203 362.219 294.464 294.65 308.202 238.27C326.981 161.205 260.616 87.4621 183.178 95.8551Z" fill="#26365A" fill-opacity="0.4"/>
</svg>
