<svg width="503" height="515" viewBox="0 0 503 515" fill="none" xmlns="http://www.w3.org/2000/svg">
<path opacity="0.1" d="M396.806 79.3299C323.341 83.1117 303.187 18.7378 241.292 3.66645C175.377 -12.3912 145.627 27.5596 138.582 60.2241C133.152 85.404 121.738 96.3339 91.6563 103.335C70.2152 107.267 51.2165 118.402 56.1927 148.947C61.1692 179.492 51.0824 197.731 36.0671 208.657C21.0517 219.586 7.04295 235.1 2.11589 255.311C-6.22938 289.523 10.7354 325.359 42.0023 341.246C77.1378 358.721 96.0078 377.849 93.5399 417.523C92.9232 427.439 97.0635 480.193 147.299 464.246C159.987 460.22 212.473 433.06 244.324 483.468C252.255 496.019 271.893 508.37 289.838 512.747C337.962 524.467 387.163 489.011 392.049 440.192C397.349 404.07 403.924 387.132 442.996 399.749C481.657 412.233 504.792 358.455 483.16 330.866C453.137 299.773 488.962 243.853 500.339 197.193C515.89 133.414 460.933 72.3838 396.806 79.3299Z" fill="#22C55E"/>
</svg>
