<!-- <svg width="1440" height="1354" viewBox="0 0 1440 1354" fill="none" xmlns="http://www.w3.org/2000/svg">
<path d="M0 0H1440V1313C1440 1313 1264.01 1351.98 1149.5 1353C988.903 1354.43 904.854 1283 744.25 1283C583.646 1283 499.589 1350.86 339 1353C205.706 1354.77 0 1313 0 1313V0Z" fill="#0F172A"/>
</svg> -->
<svg style="width: 100%; height: 800px;" viewBox="0 0 1440 1354" fill="none" xmlns="http://www.w3.org/2000/svg">
  <path d="M0 0H1440V1313C1440 1313 1264.01 1351.98 1149.5 1353C988.903 1354.43 904.854 1283 744.25 1283C583.646 1283 499.589 1350.86 339 1353C205.706 1354.77 0 1313 0 1313V0Z" fill="#0F172A"/>
</svg>