<svg width="163" height="161" viewBox="0 0 163 161" fill="none" xmlns="http://www.w3.org/2000/svg">
<path d="M86.9966 -152.006C34.4168 -149.289 19.9926 -195.538 -24.3059 -206.366C-71.4817 -217.902 -92.7741 -189.2 -97.8158 -165.732C-101.702 -147.642 -109.871 -139.789 -131.401 -134.759C-146.747 -131.935 -160.344 -123.934 -156.783 -101.989C-153.221 -80.0443 -160.44 -66.941 -171.187 -59.0909C-181.933 -51.2393 -191.959 -40.0933 -195.486 -25.5726C-201.458 -0.992813 -189.317 24.7528 -166.939 36.1671C-141.792 48.7216 -128.287 62.4645 -130.053 90.9678C-130.494 98.0917 -127.531 135.993 -91.5772 124.536C-82.4966 121.644 -44.9319 102.131 -22.1358 138.346C-16.4599 147.363 -2.40443 156.237 10.439 159.381C44.8817 167.801 80.095 142.329 83.5919 107.255C87.3849 81.303 92.0907 69.1337 120.055 78.1981C147.725 87.1671 164.282 48.5305 148.801 28.7097C127.313 6.37065 152.953 -33.8047 161.095 -67.3276C172.225 -113.149 132.892 -156.996 86.9966 -152.006Z" fill="#26365A" fill-opacity="0.4"/>
</svg>
